<svg width="109" height="72" viewBox="0 0 109 72" fill="none" xmlns="http://www.w3.org/2000/svg">
<path fill-rule="evenodd" clip-rule="evenodd" d="M21 0.499999C17.969 3.53105 15.225 18.3332 14.0735 25.3266C5.32706 29.7552 0 37.0852 0 49C0 66.6731 24.4005 72 54.5 72C88 72 109 66.6731 109 49C109 41.033 106.875 35.1556 103.107 30.8283C103.318 24.2061 103.561 7.95506 101.056 4.24567C97.8896 -0.442161 77.6168 20.0764 77.6168 20.0764L77.7069 20.1246C70.6659 19.2281 62.7996 19 54.5 19C49.5787 19 44.8097 19.1203 40.2748 19.433C37.1072 14.824 24.4889 -2.98892 21 0.499999Z" fill="#061621"/>
<path fill-rule="evenodd" clip-rule="evenodd" d="M32.3104 46.125C40.3209 47.8758 45.6346 47.5624 46.666 42.9948C48.2421 36.0144 42.6442 33.8085 35.4101 32.1411C35.8941 33.2274 35.8621 35.4987 34.7494 40.4265C34.0155 43.6764 33.2075 45.3948 32.3104 46.125ZM29.3973 45.4109C28.9222 44.3516 28.8826 42.45 29.6019 39.2642C30.6761 34.5072 31.6584 32.381 32.6014 31.5558C26.2255 30.4052 21.0706 30.9156 19.7171 36.9098C18.7827 41.0484 23.1868 43.6937 29.3973 45.4109Z" fill="#FBFBFB"/>
<path d="M61.3529 51.4225C61.3714 53.4387 59.1958 54.0664 55.7162 54.0983C52.5898 54.127 50.0498 53.5425 50.0314 51.5263C50.0047 48.6171 52.5344 48.0805 55.6608 48.0519C58.7872 48.0232 61.3247 48.3423 61.3529 51.4225Z" fill="#FBFBFB"/>
<path fill-rule="evenodd" clip-rule="evenodd" d="M76.1629 46.3312C68.6994 47.8426 63.7747 47.3737 62.786 42.9948C61.2524 36.2027 66.511 33.9309 73.4602 32.2773C72.8217 33.2289 72.7391 35.4358 73.9622 40.8524C74.6305 43.812 75.3603 45.5015 76.1629 46.3312ZM79.414 45.5831C85.959 43.8722 90.7011 41.1894 89.7348 36.9098C88.308 30.5908 82.6566 30.366 75.8038 31.7568C76.8405 32.3754 77.9187 34.4156 79.1096 39.6901C79.7748 42.6361 79.791 44.484 79.414 45.5831Z" fill="#FBFBFB"/>
</svg>
